<svg width="396" height="468" viewBox="0 0 396 468" fill="none" xmlns="http://www.w3.org/2000/svg">
<path d="M384.156 -3.58379e-07C404.552 2.76314e-06 420.041 4.32973 430.624 12.9883C441.399 21.4545 446.787 34.1536 446.787 51.0859C446.787 70.9046 441.015 91.0123 429.47 111.408C417.925 131.804 401.473 151.43 380.115 170.287C358.95 188.951 333.263 206.172 303.054 221.95C273.037 237.536 239.46 250.428 202.324 260.626C202.324 272.748 203.767 284.389 206.653 295.549C209.732 306.516 214.254 316.33 220.219 324.988C226.184 333.455 233.496 340.19 242.154 345.192C251.005 350.195 261.203 352.696 272.748 352.696C286.217 352.696 300.263 349.521 314.887 343.172C329.51 336.822 343.845 328.741 357.892 318.928C371.938 309.115 385.118 298.243 397.433 286.313C409.747 274.191 420.426 262.357 429.47 250.812C446.402 229.07 460.064 212.81 470.454 202.035C480.844 191.26 486.425 185.487 487.194 184.718L497.585 195.686C479.883 212.81 464.201 231.091 450.539 250.524C437.07 269.958 424.659 289.68 413.307 309.691C401.954 329.51 391.275 349.329 381.27 369.147C371.264 388.966 360.97 407.919 350.388 426.006C339.805 444.093 328.452 460.833 316.33 476.227C304.4 491.812 290.739 505.281 275.346 516.634C259.953 527.986 242.443 536.837 222.816 543.187C203.383 549.729 180.869 553 155.278 553C131.419 553 109.868 550.113 90.627 544.341C71.5781 538.761 55.3195 530.872 41.8506 520.674C28.3815 510.668 18.0871 498.739 10.9678 484.885C3.65604 471.223 4.25692e-07 456.311 4.10614e-07 440.148C1.48728e-05 423.024 2.98242 408.304 8.94727 395.989C14.7197 383.482 22.3199 373.284 31.748 365.396C40.9839 357.314 51.4709 351.446 63.208 347.79C75.1376 343.942 87.0675 342.018 98.9971 342.018C113.621 342.018 126.128 344.326 136.519 348.944C146.909 353.562 155.856 359.046 163.36 365.396L154.99 377.229C152.681 375.304 149.891 373.188 146.62 370.879C143.542 368.57 139.885 366.453 135.652 364.529C131.612 362.413 127.09 360.681 122.087 359.334C117.277 357.987 112.082 357.314 106.502 357.314C95.5345 357.314 85.5287 359.334 76.4854 363.375C67.4419 367.416 59.6485 373.188 53.1064 380.692C46.7568 388.004 41.8502 396.759 38.3867 406.957C34.9233 416.963 33.1914 428.026 33.1914 440.148C33.1914 456.119 36.6552 470.165 43.582 482.287C50.3165 494.601 59.1673 504.8 70.1348 512.881C81.2948 521.155 93.8024 527.408 107.656 531.642C121.702 535.875 135.941 537.991 150.372 537.991C172.115 537.991 190.972 534.816 206.942 528.467C223.105 522.31 237.44 513.939 249.947 503.356C262.646 492.774 273.999 480.363 284.004 466.125C294.202 451.886 304.112 436.781 313.732 420.811C323.353 404.648 333.263 388.197 343.461 371.457C353.659 354.525 365.3 337.976 378.384 321.813C357.411 339.131 336.822 352.408 316.618 361.644C296.607 370.687 277.174 375.209 258.317 375.209C246.58 375.209 235.227 373.092 224.26 368.859C213.292 364.434 203.479 357.891 194.82 349.232C186.354 340.381 179.427 329.414 174.039 316.33C168.651 303.054 165.669 287.468 165.092 269.573C153.354 272.075 109.511 279.033 88.3008 280.446C67.09 281.86 13.7594 284.581 1.1543 284.581L2.57111e-07 275.604C13.7596 275.604 64.0742 271.493 88.3008 268.478C112.527 265.462 153.644 255.912 165.381 253.41C166.343 229.743 170.287 207.039 177.214 185.296C184.141 163.553 193.185 143.349 204.345 124.685C215.505 105.828 228.3 88.7993 242.731 73.5986C257.162 58.2056 272.267 45.1218 288.045 34.3467C304.015 23.3791 320.178 14.9121 336.533 8.94727C353.081 2.98241 368.955 -3.44198e-07 384.156 -3.58379e-07ZM393.393 16.4512C378.577 16.4512 363.76 19.3379 348.944 25.1104C334.128 30.8828 319.89 38.9642 306.229 49.3545C292.76 59.7449 280.06 72.0592 268.13 86.2979C256.2 100.536 245.618 116.122 236.382 133.055C227.338 149.795 219.834 167.594 213.869 186.45C208.097 205.307 204.441 224.452 202.901 243.886C241.961 232.918 275.826 219.449 304.496 203.479C333.166 187.316 356.93 170.384 375.786 152.682C394.643 134.98 408.689 117.277 417.925 99.5752C427.161 81.8731 431.779 65.7094 431.779 51.0859C431.779 39.7338 428.508 31.1718 421.966 25.3994C415.616 19.4346 406.092 16.4512 393.393 16.4512Z" fill="url(#paint0_linear_66_211)"/>
<path d="M384.156 -3.58379e-07C404.552 2.76314e-06 420.041 4.32973 430.624 12.9883C441.399 21.4545 446.787 34.1536 446.787 51.0859C446.787 70.9046 441.015 91.0123 429.47 111.408C417.925 131.804 401.473 151.43 380.115 170.287C358.95 188.951 333.263 206.172 303.054 221.95C273.037 237.536 239.46 250.428 202.324 260.626C202.324 272.748 203.767 284.389 206.653 295.549C209.732 306.516 214.254 316.33 220.219 324.988C226.184 333.455 233.496 340.19 242.154 345.192C251.005 350.195 261.203 352.696 272.748 352.696C286.217 352.696 300.263 349.521 314.887 343.172C329.51 336.822 343.845 328.741 357.892 318.928C371.938 309.115 385.118 298.243 397.433 286.313C409.747 274.191 420.426 262.357 429.47 250.812C446.402 229.07 460.064 212.81 470.454 202.035C480.844 191.26 486.425 185.487 487.194 184.718L497.585 195.686C479.883 212.81 464.201 231.091 450.539 250.524C437.07 269.958 424.659 289.68 413.307 309.691C401.954 329.51 391.275 349.329 381.27 369.147C371.264 388.966 360.97 407.919 350.388 426.006C339.805 444.093 328.452 460.833 316.33 476.227C304.4 491.812 290.739 505.281 275.346 516.634C259.953 527.986 242.443 536.837 222.816 543.187C203.383 549.729 180.869 553 155.278 553C131.419 553 109.868 550.113 90.627 544.341C71.5781 538.761 55.3195 530.872 41.8506 520.674C28.3815 510.668 18.0871 498.739 10.9678 484.885C3.65604 471.223 4.25692e-07 456.311 4.10614e-07 440.148C1.48728e-05 423.024 2.98242 408.304 8.94727 395.989C14.7197 383.482 22.3199 373.284 31.748 365.396C40.9839 357.314 51.4709 351.446 63.208 347.79C75.1376 343.942 87.0675 342.018 98.9971 342.018C113.621 342.018 126.128 344.326 136.519 348.944C146.909 353.562 155.856 359.046 163.36 365.396L154.99 377.229C152.681 375.304 149.891 373.188 146.62 370.879C143.542 368.57 139.885 366.453 135.652 364.529C131.612 362.413 127.09 360.681 122.087 359.334C117.277 357.987 112.082 357.314 106.502 357.314C95.5345 357.314 85.5287 359.334 76.4854 363.375C67.4419 367.416 59.6485 373.188 53.1064 380.692C46.7568 388.004 41.8502 396.759 38.3867 406.957C34.9233 416.963 33.1914 428.026 33.1914 440.148C33.1914 456.119 36.6552 470.165 43.582 482.287C50.3165 494.601 59.1673 504.8 70.1348 512.881C81.2948 521.155 93.8024 527.408 107.656 531.642C121.702 535.875 135.941 537.991 150.372 537.991C172.115 537.991 190.972 534.816 206.942 528.467C223.105 522.31 237.44 513.939 249.947 503.356C262.646 492.774 273.999 480.363 284.004 466.125C294.202 451.886 304.112 436.781 313.732 420.811C323.353 404.648 333.263 388.197 343.461 371.457C353.659 354.525 365.3 337.976 378.384 321.813C357.411 339.131 336.822 352.408 316.618 361.644C296.607 370.687 277.174 375.209 258.317 375.209C246.58 375.209 235.227 373.092 224.26 368.859C213.292 364.434 203.479 357.891 194.82 349.232C186.354 340.381 179.427 329.414 174.039 316.33C168.651 303.054 165.669 287.468 165.092 269.573C153.354 272.075 109.511 279.033 88.3008 280.446C67.09 281.86 13.7594 284.581 1.1543 284.581L2.57111e-07 275.604C13.7596 275.604 64.0742 271.493 88.3008 268.478C112.527 265.462 153.644 255.912 165.381 253.41C166.343 229.743 170.287 207.039 177.214 185.296C184.141 163.553 193.185 143.349 204.345 124.685C215.505 105.828 228.3 88.7993 242.731 73.5986C257.162 58.2056 272.267 45.1218 288.045 34.3467C304.015 23.3791 320.178 14.9121 336.533 8.94727C353.081 2.98241 368.955 -3.44198e-07 384.156 -3.58379e-07ZM393.393 16.4512C378.577 16.4512 363.76 19.3379 348.944 25.1104C334.128 30.8828 319.89 38.9642 306.229 49.3545C292.76 59.7449 280.06 72.0592 268.13 86.2979C256.2 100.536 245.618 116.122 236.382 133.055C227.338 149.795 219.834 167.594 213.869 186.45C208.097 205.307 204.441 224.452 202.901 243.886C241.961 232.918 275.826 219.449 304.496 203.479C333.166 187.316 356.93 170.384 375.786 152.682C394.643 134.98 408.689 117.277 417.925 99.5752C427.161 81.8731 431.779 65.7094 431.779 51.0859C431.779 39.7338 428.508 31.1718 421.966 25.3994C415.616 19.4346 406.092 16.4512 393.393 16.4512Z" fill="url(#paint1_linear_66_211)"/>
<path d="M384.156 -3.58379e-07C404.552 2.76314e-06 420.041 4.32973 430.624 12.9883C441.399 21.4545 446.787 34.1536 446.787 51.0859C446.787 70.9046 441.015 91.0123 429.47 111.408C417.925 131.804 401.473 151.43 380.115 170.287C358.95 188.951 333.263 206.172 303.054 221.95C273.037 237.536 239.46 250.428 202.324 260.626C202.324 272.748 203.767 284.389 206.653 295.549C209.732 306.516 214.254 316.33 220.219 324.988C226.184 333.455 233.496 340.19 242.154 345.192C251.005 350.195 261.203 352.696 272.748 352.696C286.217 352.696 300.263 349.521 314.887 343.172C329.51 336.822 343.845 328.741 357.892 318.928C371.938 309.115 385.118 298.243 397.433 286.313C409.747 274.191 420.426 262.357 429.47 250.812C446.402 229.07 460.064 212.81 470.454 202.035C480.844 191.26 486.425 185.487 487.194 184.718L497.585 195.686C479.883 212.81 464.201 231.091 450.539 250.524C437.07 269.958 424.659 289.68 413.307 309.691C401.954 329.51 391.275 349.329 381.27 369.147C371.264 388.966 360.97 407.919 350.388 426.006C339.805 444.093 328.452 460.833 316.33 476.227C304.4 491.812 290.739 505.281 275.346 516.634C259.953 527.986 242.443 536.837 222.816 543.187C203.383 549.729 180.869 553 155.278 553C131.419 553 109.868 550.113 90.627 544.341C71.5781 538.761 55.3195 530.872 41.8506 520.674C28.3815 510.668 18.0871 498.739 10.9678 484.885C3.65604 471.223 4.25692e-07 456.311 4.10614e-07 440.148C1.48728e-05 423.024 2.98242 408.304 8.94727 395.989C14.7197 383.482 22.3199 373.284 31.748 365.396C40.9839 357.314 51.4709 351.446 63.208 347.79C75.1376 343.942 87.0675 342.018 98.9971 342.018C113.621 342.018 126.128 344.326 136.519 348.944C146.909 353.562 155.856 359.046 163.36 365.396L154.99 377.229C152.681 375.304 149.891 373.188 146.62 370.879C143.542 368.57 139.885 366.453 135.652 364.529C131.612 362.413 127.09 360.681 122.087 359.334C117.277 357.987 112.082 357.314 106.502 357.314C95.5345 357.314 85.5287 359.334 76.4854 363.375C67.4419 367.416 59.6485 373.188 53.1064 380.692C46.7568 388.004 41.8502 396.759 38.3867 406.957C34.9233 416.963 33.1914 428.026 33.1914 440.148C33.1914 456.119 36.6552 470.165 43.582 482.287C50.3165 494.601 59.1673 504.8 70.1348 512.881C81.2948 521.155 93.8024 527.408 107.656 531.642C121.702 535.875 135.941 537.991 150.372 537.991C172.115 537.991 190.972 534.816 206.942 528.467C223.105 522.31 237.44 513.939 249.947 503.356C262.646 492.774 273.999 480.363 284.004 466.125C294.202 451.886 304.112 436.781 313.732 420.811C323.353 404.648 333.263 388.197 343.461 371.457C353.659 354.525 365.3 337.976 378.384 321.813C357.411 339.131 336.822 352.408 316.618 361.644C296.607 370.687 277.174 375.209 258.317 375.209C246.58 375.209 235.227 373.092 224.26 368.859C213.292 364.434 203.479 357.891 194.82 349.232C186.354 340.381 179.427 329.414 174.039 316.33C168.651 303.054 165.669 287.468 165.092 269.573C153.354 272.075 109.511 279.033 88.3008 280.446C67.09 281.86 13.7594 284.581 1.1543 284.581L2.57111e-07 275.604C13.7596 275.604 64.0742 271.493 88.3008 268.478C112.527 265.462 153.644 255.912 165.381 253.41C166.343 229.743 170.287 207.039 177.214 185.296C184.141 163.553 193.185 143.349 204.345 124.685C215.505 105.828 228.3 88.7993 242.731 73.5986C257.162 58.2056 272.267 45.1218 288.045 34.3467C304.015 23.3791 320.178 14.9121 336.533 8.94727C353.081 2.98241 368.955 -3.44198e-07 384.156 -3.58379e-07ZM393.393 16.4512C378.577 16.4512 363.76 19.3379 348.944 25.1104C334.128 30.8828 319.89 38.9642 306.229 49.3545C292.76 59.7449 280.06 72.0592 268.13 86.2979C256.2 100.536 245.618 116.122 236.382 133.055C227.338 149.795 219.834 167.594 213.869 186.45C208.097 205.307 204.441 224.452 202.901 243.886C241.961 232.918 275.826 219.449 304.496 203.479C333.166 187.316 356.93 170.384 375.786 152.682C394.643 134.98 408.689 117.277 417.925 99.5752C427.161 81.8731 431.779 65.7094 431.779 51.0859C431.779 39.7338 428.508 31.1718 421.966 25.3994C415.616 19.4346 406.092 16.4512 393.393 16.4512Z" fill="#FCCC39"/>
<defs>
<linearGradient id="paint0_linear_66_211" x1="497.787" y1="196.781" x2="51.7254" y2="215.742" gradientUnits="userSpaceOnUse">
<stop stop-color="#00C8FF"/>
<stop offset="1" stop-color="#9FD9E9"/>
</linearGradient>
<linearGradient id="paint1_linear_66_211" x1="497.787" y1="196.781" x2="51.7254" y2="215.742" gradientUnits="userSpaceOnUse">
<stop stop-color="#1A7AC2"/>
<stop offset="1" stop-color="#D5E4F1"/>
</linearGradient>
</defs>
</svg>
