<svg width="620" height="222" viewBox="0 0 620 222" fill="none" xmlns="http://www.w3.org/2000/svg">
<path d="M140.821 -3C149.094 -2.99994 155.376 -1.24349 159.669 2.26855C164.04 5.70261 166.226 10.8536 166.226 17.7217C166.226 25.7604 163.884 33.9166 159.201 42.1895C154.518 50.4623 147.845 58.4228 139.182 66.0713C130.596 73.6418 120.177 80.6275 107.924 87.0273C95.7486 93.349 82.1293 98.5774 67.0664 102.714C67.0664 107.631 67.6516 112.353 68.8223 116.88C70.071 121.329 71.9057 125.309 74.3252 128.821C76.7445 132.255 79.7099 134.987 83.2217 137.016C86.8118 139.045 90.949 140.06 95.6318 140.06C101.095 140.06 106.792 138.772 112.724 136.196C118.655 133.621 124.47 130.343 130.167 126.362C135.864 122.382 141.211 117.973 146.206 113.134C151.201 108.217 155.533 103.417 159.201 98.7344C166.069 89.9151 171.611 83.3198 175.825 78.9492C180.04 74.5786 182.303 72.237 182.615 71.9248L186.829 76.373C179.649 83.3192 173.288 90.7345 167.747 98.6172C162.284 106.5 157.249 114.499 152.645 122.616C148.04 130.655 143.709 138.694 139.65 146.732C135.592 154.771 131.416 162.459 127.124 169.795C122.831 177.131 118.227 183.922 113.31 190.166C108.471 196.488 102.929 201.951 96.6855 206.556C90.4419 211.16 83.3396 214.751 75.3789 217.326C67.4963 219.98 58.3644 221.307 47.9844 221.307C38.3065 221.307 29.5645 220.135 21.7598 217.794C14.0334 215.531 7.43874 212.331 1.97559 208.194C-3.4877 204.136 -7.66402 199.297 -10.5518 193.678C-13.5174 188.137 -14.9999 182.088 -15 175.532C-15 168.586 -13.7905 162.615 -11.3711 157.62C-9.02969 152.547 -5.94637 148.411 -2.12207 145.211C1.62419 141.933 5.8778 139.552 10.6387 138.069C15.4775 136.508 20.3164 135.728 25.1553 135.728C31.0867 135.728 36.1595 136.665 40.374 138.538C44.5886 140.411 48.2179 142.635 51.2617 145.211L47.8672 150.011C46.9306 149.23 45.7985 148.371 44.4717 147.435C43.223 146.498 41.7402 145.64 40.0234 144.859C38.3845 144.001 36.5497 143.298 34.5205 142.752C32.5695 142.206 30.4624 141.933 28.1992 141.933C23.7505 141.933 19.6916 142.753 16.0234 144.392C12.3555 146.031 9.19449 148.371 6.54102 151.415C3.96554 154.381 1.97515 157.932 0.570313 162.068C-0.834534 166.127 -1.53711 170.615 -1.53711 175.532C-1.53705 182.01 -0.131901 187.707 2.67773 192.624C5.40937 197.619 8.99959 201.755 13.4482 205.033C17.9749 208.389 23.0478 210.926 28.667 212.643C34.3644 214.36 40.1406 215.219 45.9941 215.219C54.8132 215.219 62.4617 213.931 68.9395 211.355C75.4954 208.858 81.3098 205.462 86.3828 201.17C91.5339 196.877 96.1389 191.844 100.197 186.068C104.334 180.293 108.354 174.166 112.256 167.688C116.158 161.133 120.177 154.459 124.313 147.669C128.45 140.801 133.172 134.089 138.479 127.533C129.973 134.557 121.622 139.942 113.427 143.688C105.31 147.357 97.4269 149.191 89.7783 149.191C85.0175 149.191 80.4125 148.332 75.9639 146.615C71.5152 144.82 67.5346 142.166 64.0225 138.654C60.5885 135.064 57.779 130.616 55.5938 125.309C53.4085 119.923 52.198 113.602 51.9639 106.344C47.2022 107.358 29.4196 110.181 20.8164 110.754C12.2132 111.327 -9.41752 112.431 -14.5312 112.431L-15 108.79C-9.41885 108.79 10.9896 107.123 20.8164 105.899C30.643 104.676 47.3199 100.802 52.0811 99.7871C52.4713 90.1876 54.0713 80.9782 56.8809 72.1592C59.6905 63.3399 63.359 55.1447 67.8857 47.5742C72.4125 39.9256 77.6025 33.0182 83.4561 26.8525C89.3094 20.609 95.4363 15.3022 101.836 10.9316C108.314 6.48302 114.87 3.04835 121.504 0.628906C128.216 -1.79054 134.656 -3 140.821 -3ZM509.032 56.0898L488.423 97.4893C492.054 92.8288 495.868 88.5015 499.862 84.5068C503.857 80.4516 507.943 77.1524 512.119 74.6104C515.206 72.7947 517.93 71.5544 520.29 70.8887C522.651 70.1624 524.89 69.7988 527.009 69.7988C529.067 69.7989 530.761 70.1321 532.093 70.7979C533.424 71.4636 534.484 72.3413 535.271 73.4307C536.057 74.5199 536.602 75.7302 536.904 77.0615C537.207 78.3325 537.358 79.604 537.358 80.875C537.358 83.7197 536.875 86.5342 535.906 89.3184C534.938 92.1025 533.727 94.8565 532.274 97.5801C530.882 100.304 529.338 102.997 527.644 105.66C525.949 108.263 524.375 110.836 522.923 113.378C521.531 115.859 520.35 118.311 519.382 120.731C518.413 123.152 517.93 125.483 517.93 127.723C517.93 128.812 518.051 129.72 518.293 130.446C518.596 131.112 518.958 131.657 519.382 132.08C519.866 132.443 520.381 132.686 520.926 132.807C521.47 132.928 522.015 132.988 522.56 132.988C523.71 132.988 525.042 132.473 526.555 131.444C528.128 130.355 529.793 128.963 531.548 127.269C533.303 125.513 535.089 123.546 536.904 121.367C538.781 119.128 540.566 116.858 542.261 114.558C544.016 112.197 545.651 109.898 547.164 107.658C548.677 105.358 550.008 103.27 551.158 101.394L551.21 101.433C552.493 98.5091 554.027 95.7416 555.811 93.1309C558.292 89.4995 561.137 86.201 564.345 83.2354C567.553 80.2091 570.791 77.636 574.06 75.5176C577.388 73.3992 580.627 71.7652 583.774 70.6152C586.922 69.4048 589.706 68.7998 592.127 68.7998C593.701 68.7998 595.304 69.0412 596.938 69.5254C598.573 70.0096 600.026 70.767 601.297 71.7959C602.628 72.8247 603.687 74.1865 604.474 75.8809C605.321 77.5756 605.745 79.6034 605.745 81.9639C605.745 85.1717 604.989 88.1982 603.476 91.043C602.023 93.8271 600.056 96.4296 597.574 98.8506C595.093 101.211 592.218 103.36 588.949 105.297C585.681 107.173 582.261 108.777 578.689 110.108C575.119 111.44 571.517 112.499 567.886 113.286C564.254 114.073 560.804 114.496 557.536 114.557C557.415 115.283 557.324 116.01 557.264 116.736C557.203 117.463 557.173 118.189 557.173 118.915C557.173 121.094 557.476 123.182 558.081 125.18C558.747 127.116 559.685 128.841 560.896 130.354C562.167 131.807 563.71 132.957 565.525 133.805C567.402 134.652 569.52 135.075 571.881 135.075C579.81 135.075 587.466 132.382 594.851 126.995C602.235 121.608 609.588 113.074 616.912 101.393L619.999 104.116C616.004 110.774 611.949 116.403 607.833 121.003C603.717 125.542 599.602 129.234 595.486 132.079C591.431 134.924 587.436 136.982 583.502 138.253C579.568 139.524 575.815 140.159 572.244 140.159C569.642 140.159 566.888 139.797 563.982 139.07C561.077 138.344 558.383 137.133 555.901 135.438C553.48 133.744 551.483 131.474 549.909 128.63C548.275 125.785 547.458 122.244 547.458 118.007C547.458 117.153 547.485 116.306 547.541 115.465C547.357 115.735 547.172 116.009 546.982 116.283C545.227 118.765 543.29 121.276 541.172 123.818C539.114 126.3 536.935 128.57 534.635 130.628C532.335 132.686 529.974 134.35 527.553 135.621C525.192 136.952 522.862 137.618 520.563 137.618C518.989 137.618 517.476 137.376 516.023 136.892C514.571 136.407 513.299 135.681 512.21 134.713C511.12 133.684 510.243 132.382 509.577 130.809C508.911 129.235 508.578 127.358 508.578 125.18C508.578 122.577 509.093 119.582 510.122 116.192C511.212 112.803 513.269 108.929 516.295 104.571C518.776 101 520.925 98.0343 522.741 95.6738C524.557 93.2528 526.04 91.1644 527.19 89.4092C528.401 87.5935 529.279 85.9594 529.823 84.5068C530.368 82.9938 530.64 81.3293 530.64 79.5137C530.64 77.9401 530.186 76.7292 529.278 75.8818C528.37 75.0345 527.341 74.6104 526.191 74.6104C523.105 74.6104 519.927 75.4879 516.658 77.2432C513.594 78.8887 510.557 81.04 507.546 83.6963L506.343 84.7725C503.343 87.4889 500.396 90.5779 497.502 94.0391C494.415 97.7311 491.479 101.514 488.695 105.388C485.972 109.201 483.43 112.954 481.069 116.646C478.769 120.338 476.772 123.667 475.077 126.633C473.382 129.538 472.081 131.898 471.173 133.714C470.206 135.466 469.692 136.374 469.63 136.437C467.088 141.643 464.606 146.667 462.185 151.509C459.764 156.411 457.494 161.042 455.376 165.399C453.197 169.757 451.2 173.722 449.384 177.293C447.568 180.925 445.994 184.072 444.662 186.735C443.331 189.398 442.301 191.486 441.575 192.999C440.788 194.512 440.365 195.3 440.305 195.36L430.408 189.731C435.371 180.35 439.851 171.876 443.846 164.311C447.84 156.745 451.654 149.602 455.285 142.884C457.574 138.688 459.839 134.565 462.079 130.514C462.037 130.551 461.997 130.59 461.955 130.628C459.655 132.686 457.294 134.35 454.873 135.621C452.513 136.953 450.183 137.618 447.883 137.618C446.309 137.618 444.795 137.376 443.343 136.892C441.89 136.407 440.619 135.681 439.529 134.713C438.44 133.684 437.562 132.382 436.896 130.809C436.231 129.235 435.898 127.358 435.898 125.18C435.898 122.577 436.413 119.581 437.441 116.192C438.531 112.803 440.589 108.929 443.615 104.571C446.097 101 448.246 98.0343 450.062 95.6738C451.877 93.2528 453.36 91.1644 454.51 89.4092C455.72 87.5935 456.598 85.9594 457.143 84.5068C457.687 82.9938 457.96 81.3293 457.96 79.5137C457.96 77.9402 457.506 76.7292 456.599 75.8818C455.691 75.0346 454.662 74.6105 453.512 74.6104C450.425 74.6104 447.247 75.488 443.979 77.2432C440.71 78.9984 437.472 81.3291 434.264 84.2344C431.056 87.0789 427.909 90.3472 424.822 94.0391C421.736 97.731 418.8 101.514 416.016 105.388C413.292 109.201 410.749 112.953 408.389 116.646C406.089 120.338 404.091 123.667 402.396 126.633C400.702 129.538 399.401 131.898 398.493 133.714C397.525 135.468 397.01 136.376 396.949 136.437C394.407 141.643 391.926 146.667 389.505 151.509C387.084 156.411 384.814 161.042 382.695 165.399C380.516 169.757 378.519 173.722 376.703 177.293C374.887 180.924 373.314 184.072 371.982 186.735C370.651 189.398 369.622 191.486 368.896 192.999C368.109 194.512 367.686 195.299 367.625 195.36L357.729 189.731C362.692 180.35 367.17 171.876 371.165 164.311C375.16 156.745 378.973 149.602 382.604 142.884C386.236 136.226 389.808 129.75 393.318 123.455C393.334 123.427 393.349 123.399 393.364 123.371C389.989 126.843 386.616 129.747 383.241 132.079C379.186 134.924 375.191 136.982 371.257 138.253C367.323 139.524 363.57 140.159 359.999 140.159C357.396 140.159 354.642 139.797 351.737 139.07C348.832 138.344 346.139 137.133 343.657 135.438C341.236 133.744 339.239 131.474 337.665 128.63C336.031 125.785 335.214 122.244 335.214 118.007C335.214 116.653 335.285 115.316 335.425 113.994C334.699 114.97 333.956 115.946 333.192 116.918C329.924 121.094 326.323 124.877 322.389 128.267C318.454 131.596 314.217 134.289 309.678 136.347C305.138 138.465 300.326 139.524 295.242 139.524C290.703 139.524 286.89 138.435 283.803 136.256C280.655 134.137 278.718 130.929 277.992 126.632L281.261 125.997C281.261 126.36 281.443 126.965 281.806 127.812C282.108 128.599 282.622 129.386 283.349 130.173C284.075 130.96 285.074 131.656 286.345 132.261C287.555 132.866 289.069 133.169 290.885 133.169C293.305 133.169 295.454 132.624 297.33 131.535C299.206 130.385 300.841 128.902 302.233 127.086C303.625 125.27 304.805 123.212 305.773 120.912C306.742 118.552 307.499 116.131 308.044 113.649C308.649 111.168 309.072 108.747 309.314 106.387C309.557 104.026 309.678 101.877 309.678 99.9404C309.678 98.0036 309.587 95.8547 309.405 93.4941C309.284 91.1338 309.133 88.8946 308.951 86.7764C308.77 84.5977 308.589 82.721 308.407 81.1475C308.286 79.5137 308.226 78.4541 308.226 77.9697L308.226 77.7881C307.439 78.6354 306.5 79.8758 305.411 81.5098C304.322 83.1439 303.141 84.9295 301.87 86.8662C300.66 88.803 299.418 90.7703 298.147 92.7676C296.937 94.7649 295.817 96.5807 294.788 98.2148C293.82 99.849 293.003 101.211 292.337 102.301C291.733 103.327 291.43 103.872 291.429 103.935L288.161 101.393C288.224 101.327 288.981 100.026 290.431 97.4893C291.883 94.9472 293.79 91.7389 296.15 87.8652C298.571 83.9311 301.295 79.6037 304.321 74.8828C307.348 70.1013 310.465 65.4711 313.673 60.9922L317.304 63.9883C317.001 64.5329 316.608 65.1381 316.124 65.8037C315.64 66.409 315.155 67.1351 314.671 67.9824C314.247 68.7692 313.854 69.7075 313.491 70.7969C313.189 71.8863 313.037 73.188 313.037 74.7012C313.037 75.9722 313.34 77.6972 313.945 79.876C314.611 82.0548 315.307 84.5666 316.033 87.4111C316.76 90.1953 317.425 93.2522 318.03 96.5811C318.696 99.8493 319.029 103.239 319.029 106.749C319.029 111.894 318.334 116.434 316.941 120.368C315.549 124.302 313.703 127.661 311.403 130.445C316.124 127.903 320.755 124.272 325.294 119.551C329.814 114.79 334.362 108.768 338.941 101.487C340.23 98.5435 341.771 95.7579 343.566 93.1309C346.048 89.4994 348.893 86.2011 352.101 83.2354C355.308 80.2091 358.547 77.636 361.815 75.5176C365.144 73.3993 368.382 71.7652 371.529 70.6152C374.677 69.4048 377.461 68.7999 379.882 68.7998C381.456 68.7998 383.06 69.0412 384.694 69.5254C386.328 70.0096 387.781 70.767 389.052 71.7959C390.383 72.8248 391.443 74.1862 392.229 75.8809C393.077 77.5756 393.501 79.6034 393.501 81.9639C393.501 85.1717 392.744 88.1982 391.23 91.043C389.778 93.827 387.811 96.4296 385.329 98.8506C382.848 101.211 379.972 103.36 376.704 105.297C373.436 107.173 370.016 108.777 366.445 110.108C362.874 111.44 359.273 112.499 355.642 113.286C352.01 114.073 348.559 114.496 345.291 114.557C345.17 115.283 345.08 116.01 345.02 116.736C344.959 117.463 344.929 118.189 344.929 118.915C344.929 121.094 345.231 123.182 345.836 125.18C346.502 127.116 347.44 128.841 348.65 130.354C349.921 131.807 351.465 132.957 353.281 133.805C355.157 134.652 357.276 135.075 359.636 135.075C367.565 135.075 375.221 132.382 382.605 126.995C389.99 121.608 397.946 113.91 405.27 102.229L405.331 102.275C409.029 95.8022 413.013 88.9103 417.286 81.6016C421.947 73.6727 427.243 64.7446 433.175 54.8184L436.353 56.0898L415.743 97.4893C419.375 92.8288 423.188 88.5015 427.183 84.5068C431.177 80.4517 435.262 77.1524 439.438 74.6104C442.525 72.7946 445.25 71.5545 447.61 70.8887C449.971 70.1624 452.21 69.7989 454.328 69.7988C456.386 69.7988 458.082 70.1321 459.413 70.7979C460.744 71.4636 461.803 72.3413 462.59 73.4307C463.377 74.52 463.922 75.7301 464.225 77.0615C464.527 78.3325 464.679 79.604 464.679 80.875C464.679 83.7197 464.194 86.5342 463.226 89.3184C462.257 92.1026 461.046 94.8564 459.594 97.5801C458.202 100.304 456.659 102.997 454.964 105.66C453.269 108.263 451.696 110.836 450.243 113.378C448.851 115.859 447.671 118.31 446.702 120.731C445.734 123.152 445.249 125.483 445.249 127.723C445.249 128.812 445.37 129.72 445.612 130.446C445.915 131.112 446.279 131.656 446.702 132.08C447.186 132.443 447.701 132.686 448.245 132.807C448.79 132.928 449.335 132.988 449.88 132.988C451.03 132.988 452.361 132.473 453.874 131.444C455.448 130.355 457.113 128.963 458.868 127.269C460.623 125.513 462.409 123.546 464.225 121.367C466.101 119.128 467.886 116.858 469.581 114.558C471.336 112.197 472.97 109.898 474.483 107.658C475.307 106.406 476.185 105.191 476.999 104.042C477.054 103.946 477.11 103.85 477.165 103.754C481.099 96.8539 485.367 89.4699 489.967 81.6016C494.627 73.6727 499.923 64.7446 505.854 54.8184L509.032 56.0898ZM282.076 72.8848C278.566 79.7847 275.176 86.2306 271.907 92.2227C268.699 98.1542 265.825 103.511 263.283 108.293C260.802 113.014 258.804 117.129 257.291 120.64C255.838 124.15 255.111 126.934 255.111 128.992C255.111 129.84 255.293 130.536 255.656 131.081C256.019 131.626 256.595 131.897 257.382 131.897C259.621 131.958 262.072 130.989 264.735 128.992C267.459 126.995 270.183 124.483 272.906 121.457C275.69 118.431 278.384 115.132 280.986 111.562C283.649 107.93 286.041 104.54 288.159 101.393L291.428 103.935C291.065 104.54 290.307 105.781 289.157 107.657C288.007 109.533 286.585 111.683 284.891 114.104C283.196 116.524 281.259 119.066 279.08 121.729C276.901 124.393 274.601 126.844 272.18 129.083C269.759 131.262 267.247 133.078 264.645 134.53C262.042 135.922 259.47 136.619 256.928 136.619C255.354 136.619 253.931 136.346 252.66 135.802C251.45 135.257 250.421 134.531 249.573 133.623C248.726 132.715 248.06 131.656 247.576 130.445C247.092 129.235 246.85 127.963 246.85 126.632C246.85 125.058 247.092 123.333 247.576 121.457C248.121 119.581 248.877 117.583 249.846 115.465C247.061 118.733 244.308 121.76 241.584 124.544C238.86 127.268 236.137 129.628 233.413 131.625C230.75 133.562 228.087 135.076 225.424 136.165C222.761 137.315 220.067 137.89 217.344 137.89C215.044 137.89 212.955 137.466 211.079 136.619C209.263 135.832 207.689 134.712 206.357 133.26C204.965 131.747 203.906 129.931 203.18 127.812C202.453 125.634 202.091 123.212 202.091 120.549C202.091 119.698 202.131 118.842 202.209 117.981C200.73 120.08 199.148 122.086 197.46 123.999C194.736 127.025 191.74 129.538 188.472 131.535C185.203 133.532 181.632 134.531 177.759 134.531C174.127 134.531 171.343 133.442 169.406 131.263C167.469 129.084 166.501 126.269 166.501 122.819C166.501 118.764 167.439 114.527 169.315 110.108C171.192 105.69 173.522 101.332 176.307 97.0352C179.151 92.6773 182.207 88.5005 185.476 84.5059C188.805 80.5111 191.861 76.8797 194.646 73.6113L197.551 74.8828C196.764 76.4564 195.644 78.5441 194.191 81.1465C192.799 83.6885 191.286 86.5032 189.652 89.5898C188.018 92.6161 186.354 95.8245 184.659 99.2139C182.964 102.543 181.42 105.812 180.028 109.02C178.697 112.167 177.607 115.132 176.76 117.916C175.912 120.7 175.489 123.061 175.489 124.998C175.489 126.753 175.852 127.964 176.578 128.63C177.304 129.235 178.334 129.537 179.665 129.537C182.147 129.537 184.568 128.72 186.929 127.086C189.289 125.452 191.619 123.333 193.919 120.73C196.279 118.067 198.58 115.042 200.819 111.652C203.059 108.263 205.299 104.843 207.538 101.393L207.758 101.563C208.969 99.2629 210.317 96.9961 211.805 94.7646C214.649 90.5885 217.767 86.6246 221.156 82.8721C224.606 79.1195 227.875 75.79 230.962 72.8848L234.865 75.6084C232.686 78.8162 230.235 82.4478 227.512 86.5029C224.849 90.5581 222.307 94.7652 219.886 99.123C217.525 103.42 215.528 107.748 213.894 112.105C212.259 116.403 211.442 120.398 211.442 124.09C211.442 126.571 211.896 128.69 212.804 130.445C213.772 132.2 215.588 133.078 218.251 133.078C221.156 133.078 224.334 131.928 227.784 129.628C231.295 127.328 234.866 124.332 238.497 120.64C242.189 116.948 245.851 112.802 249.482 108.202C253.175 103.542 256.655 98.8509 259.924 94.1299C263.192 89.4089 266.158 84.8989 268.821 80.6016C271.545 76.3044 273.754 72.6424 275.448 69.6162L282.076 72.8848ZM381.517 73.4297C378.853 73.4297 375.857 74.3981 372.528 76.335C369.199 78.2113 365.87 80.8439 362.541 84.2334C359.212 87.5623 356.065 91.4968 353.1 96.0361C350.194 100.576 347.833 105.448 346.018 110.653C350.073 110.23 353.886 109.382 357.457 108.111C361.028 106.84 364.297 105.296 367.263 103.48C370.228 101.604 372.861 99.5772 375.161 97.3984C377.522 95.2195 379.489 93.0099 381.063 90.7705C382.636 88.531 383.847 86.3821 384.694 84.3242C385.542 82.2664 385.965 80.4203 385.965 78.7861C385.965 77.152 385.511 75.8502 384.604 74.8818C383.756 73.9136 382.727 73.4297 381.517 73.4297ZM593.761 73.4297C591.098 73.4297 588.101 74.3982 584.772 76.335C581.444 78.2112 578.115 80.8441 574.786 84.2334C571.457 87.5623 568.31 91.4967 565.344 96.0361C562.438 100.576 560.078 105.448 558.263 110.653C562.318 110.23 566.131 109.382 569.702 108.111C573.273 106.84 576.541 105.296 579.507 103.48C582.472 101.604 585.105 99.5772 587.405 97.3984C589.766 95.2196 591.733 93.0099 593.307 90.7705C594.88 88.531 596.091 86.3821 596.938 84.3242C597.786 82.2664 598.21 80.4203 598.21 78.7861C598.21 77.152 597.756 75.8502 596.848 74.8818C596 73.9136 594.971 73.4297 593.761 73.4297ZM144.567 3.67285C138.558 3.67285 132.548 4.84415 126.538 7.18555C120.529 9.5269 114.753 12.8042 109.212 17.0186C103.749 21.233 98.5977 26.2285 93.7588 32.0039C88.9199 37.7794 84.6271 44.1016 80.8809 50.9697C77.2128 57.7596 74.1684 64.9786 71.749 72.627C69.4077 80.2754 67.9252 88.0413 67.3008 95.9238C83.1442 91.4752 96.8808 86.012 108.51 79.5342C120.139 72.9783 129.777 66.1099 137.426 58.9297C145.074 51.7495 150.772 44.5698 154.519 37.3896C158.265 30.2095 160.138 23.6532 160.138 17.7217C160.138 13.1169 158.811 9.64316 156.157 7.30176C153.582 4.88245 149.718 3.67289 144.567 3.67285ZM209.898 50.0967C211.169 50.0967 212.259 50.5814 213.167 51.5498C214.075 52.5182 214.528 53.5776 214.528 54.7275C214.528 55.9378 214.226 57.2087 213.621 58.54C213.016 59.8111 212.228 60.9613 211.26 61.9902C210.352 63.0192 209.323 63.8665 208.173 64.5322C207.023 65.1979 205.873 65.5312 204.724 65.5312C203.695 65.5312 202.907 65.1677 202.362 64.4414C201.818 63.6547 201.546 62.7162 201.546 61.627C201.546 60.6587 201.728 59.509 202.091 58.1777C202.454 56.8462 202.998 55.6051 203.725 54.4551C204.451 53.2446 205.328 52.2155 206.357 51.3682C207.386 50.5208 208.567 50.0967 209.898 50.0967Z" fill="#FCCC39"/>
</svg>
