<svg width="1039" height="367" viewBox="0 0 1039 367" fill="none" xmlns="http://www.w3.org/2000/svg">
<path d="M254.762 -2.37667e-07C268.288 -2.50285e-07 278.56 2.87109 285.578 8.61328C292.724 14.2279 296.297 22.6497 296.297 33.8789C296.297 47.0221 292.469 60.3568 284.813 73.8828C277.156 87.4089 266.246 100.424 252.082 112.93C238.046 125.307 221.01 136.728 200.977 147.191C181.07 157.527 158.803 166.077 134.176 172.84C134.176 180.879 135.133 188.599 137.047 196C139.089 203.273 142.087 209.781 146.043 215.523C149.999 221.138 154.848 225.604 160.59 228.922C166.46 232.24 173.223 233.898 180.879 233.898C189.811 233.898 199.126 231.793 208.824 227.582C218.522 223.371 228.029 218.012 237.344 211.504C246.659 204.996 255.4 197.786 263.566 189.875C271.733 181.836 278.815 173.988 284.813 166.332C296.042 151.913 305.102 141.13 311.992 133.984C318.883 126.839 322.583 123.01 323.094 122.5L329.984 129.773C318.245 141.13 307.845 153.253 298.785 166.141C289.853 179.029 281.622 192.108 274.094 205.379C266.565 218.522 259.483 231.665 252.848 244.809C246.212 257.952 239.385 270.521 232.367 282.516C225.349 294.51 217.82 305.612 209.781 315.82C201.87 326.156 192.81 335.089 182.602 342.617C172.393 350.146 160.781 356.016 147.766 360.227C134.878 364.565 119.948 366.734 102.977 366.734C87.1536 366.734 72.862 364.82 60.1016 360.992C47.4688 357.292 36.6862 352.06 27.7539 345.297C18.8216 338.661 11.9948 330.75 7.27344 321.562C2.42448 312.503 2.82308e-07 302.613 2.72308e-07 291.895C2.61822e-07 280.538 1.97786 270.776 5.93359 262.609C9.76172 254.315 14.8021 247.552 21.0547 242.32C27.1797 236.961 34.1341 233.069 41.918 230.645C49.8294 228.092 57.7409 226.816 65.6523 226.816C75.3503 226.816 83.6445 228.348 90.5352 231.41C97.4258 234.473 103.359 238.109 108.336 242.32L102.785 250.168C101.254 248.892 99.4036 247.488 97.2344 245.957C95.1927 244.426 92.7682 243.022 89.9609 241.746C87.2813 240.342 84.2826 239.194 80.9648 238.301C77.7747 237.408 74.3294 236.961 70.6289 236.961C63.3555 236.961 56.7201 238.301 50.7227 240.98C44.7253 243.66 39.5573 247.488 35.2188 252.465C31.0078 257.314 27.7539 263.12 25.457 269.883C23.1602 276.518 22.0117 283.855 22.0117 291.895C22.0117 302.486 24.3086 311.801 28.9023 319.84C33.3685 328.007 39.2383 334.77 46.5117 340.129C53.9128 345.616 62.207 349.763 71.3945 352.57C80.7096 355.378 90.1523 356.781 99.7227 356.781C114.142 356.781 126.647 354.676 137.238 350.465C147.957 346.382 157.464 340.831 165.758 333.812C174.18 326.794 181.708 318.564 188.344 309.121C195.107 299.678 201.678 289.661 208.059 279.07C214.439 268.352 221.01 257.441 227.773 246.34C234.536 235.111 242.257 224.137 250.934 213.418C237.025 224.902 223.371 233.707 209.973 239.832C196.702 245.829 183.814 248.828 171.309 248.828C163.525 248.828 155.996 247.424 148.723 244.617C141.449 241.682 134.941 237.344 129.199 231.602C123.585 225.732 118.991 218.458 115.418 209.781C111.845 200.977 109.867 190.641 109.484 178.773C101.701 180.432 72.625 185.047 58.5586 185.984C44.4922 186.922 9.125 188.727 0.765625 188.727L1.70509e-07 182.773C9.125 182.773 42.4922 180.047 58.5586 178.047C74.625 176.047 101.892 169.714 109.676 168.055C110.314 152.359 112.93 137.302 117.523 122.883C122.117 108.464 128.115 95.0651 135.516 82.6875C142.917 70.1823 151.402 58.8893 160.973 48.8086C170.543 38.6003 180.56 29.9232 191.023 22.7773C201.615 15.5039 212.333 9.88932 223.18 5.93359C234.154 1.97786 244.681 -2.28263e-07 254.762 -2.37667e-07ZM856.773 96.6094L823.078 164.297C829.016 156.677 835.25 149.602 841.781 143.07C848.313 136.44 854.992 131.047 861.82 126.891C866.867 123.922 871.32 121.893 875.18 120.805C879.039 119.617 882.701 119.023 886.164 119.023C889.529 119.023 892.299 119.568 894.477 120.656C896.654 121.745 898.385 123.18 899.672 124.961C900.958 126.742 901.849 128.721 902.344 130.898C902.839 132.977 903.086 135.055 903.086 137.133C903.086 141.784 902.294 146.385 900.711 150.937C899.128 155.49 897.148 159.992 894.773 164.445C892.497 168.898 889.974 173.302 887.203 177.656C884.432 181.911 881.859 186.117 879.484 190.273C877.208 194.331 875.279 198.339 873.695 202.297C872.112 206.255 871.32 210.065 871.32 213.727C871.32 215.508 871.518 216.992 871.914 218.18C872.409 219.268 873.003 220.159 873.695 220.852C874.487 221.445 875.328 221.841 876.219 222.039C877.109 222.237 878 222.336 878.891 222.336C880.771 222.336 882.948 221.495 885.422 219.812C887.995 218.031 890.716 215.755 893.586 212.984C896.456 210.115 899.375 206.898 902.344 203.336C905.411 199.674 908.331 195.964 911.102 192.203C913.971 188.344 916.643 184.583 919.117 180.922C921.591 177.161 923.768 173.747 925.648 170.68L925.736 170.746C927.835 165.966 930.341 161.441 933.258 157.172C937.315 151.234 941.966 145.841 947.211 140.992C952.456 136.044 957.75 131.839 963.094 128.375C968.536 124.911 973.831 122.24 978.977 120.359C984.122 118.38 988.674 117.391 992.633 117.391C995.206 117.391 997.828 117.786 1000.5 118.578C1003.17 119.37 1005.55 120.607 1007.63 122.289C1009.8 123.971 1011.53 126.198 1012.82 128.969C1014.21 131.74 1014.9 135.055 1014.9 138.914C1014.9 144.159 1013.66 149.107 1011.19 153.758C1008.81 158.31 1005.6 162.565 1001.54 166.523C997.482 170.383 992.781 173.896 987.438 177.062C982.094 180.13 976.503 182.753 970.664 184.93C964.826 187.107 958.938 188.839 953 190.125C947.063 191.411 941.422 192.104 936.078 192.203C935.88 193.391 935.732 194.578 935.633 195.766C935.534 196.953 935.484 198.141 935.484 199.328C935.484 202.891 935.979 206.305 936.969 209.57C938.057 212.737 939.591 215.557 941.57 218.031C943.648 220.406 946.172 222.286 949.141 223.672C952.208 225.057 955.672 225.75 959.531 225.75C972.495 225.75 985.013 221.346 997.086 212.539C1009.16 203.732 1021.18 189.779 1033.16 170.68L1038.2 175.133C1031.67 186.018 1025.04 195.221 1018.31 202.742C1011.58 210.164 1004.85 216.201 998.125 220.852C991.495 225.503 984.964 228.867 978.531 230.945C972.099 233.023 965.964 234.062 960.125 234.062C955.87 234.062 951.367 233.469 946.617 232.281C941.867 231.094 937.464 229.115 933.406 226.344C929.448 223.573 926.182 219.862 923.609 215.211C920.938 210.56 919.602 204.771 919.602 197.844C919.602 196.446 919.647 195.058 919.738 193.682C919.437 194.125 919.131 194.573 918.82 195.023C915.951 199.081 912.784 203.187 909.32 207.344C905.956 211.401 902.393 215.112 898.633 218.477C894.872 221.841 891.013 224.562 887.055 226.641C883.195 228.818 879.385 229.906 875.625 229.906C873.052 229.906 870.578 229.51 868.203 228.719C865.828 227.927 863.75 226.74 861.969 225.156C860.188 223.474 858.753 221.346 857.664 218.773C856.576 216.201 856.031 213.133 856.031 209.57C856.031 205.315 856.872 200.417 858.555 194.875C860.336 189.333 863.701 183 868.648 175.875C872.706 170.036 876.219 165.187 879.188 161.328C882.156 157.37 884.581 153.956 886.461 151.086C888.44 148.117 889.875 145.445 890.766 143.07C891.656 140.596 892.102 137.875 892.102 134.906C892.102 132.333 891.359 130.354 889.875 128.969C888.391 127.583 886.708 126.891 884.828 126.891C879.781 126.891 874.586 128.326 869.242 131.195C863.898 134.065 858.604 137.875 853.359 142.625C848.115 147.276 842.969 152.62 837.922 158.656C832.875 164.693 828.076 170.878 823.523 177.211C819.07 183.445 814.914 189.581 811.055 195.617C807.294 201.654 804.029 207.096 801.258 211.945C798.487 216.695 796.359 220.555 794.875 223.523C793.292 226.393 792.451 227.878 792.352 227.977C788.195 236.487 784.138 244.701 780.18 252.617C776.221 260.633 772.51 268.203 769.047 275.328C765.484 282.453 762.219 288.935 759.25 294.773L751.531 310.211C749.354 314.565 747.672 317.979 746.484 320.453C745.198 322.927 744.505 324.214 744.406 324.312L728.227 315.109C736.341 299.771 743.664 285.917 750.195 273.547C756.727 261.177 762.961 249.5 768.898 238.516C772.64 231.657 776.343 224.917 780.006 218.294C779.939 218.355 779.872 218.416 779.805 218.477C776.044 221.841 772.185 224.562 768.227 226.641C764.367 228.818 760.557 229.906 756.797 229.906C754.224 229.906 751.75 229.51 749.375 228.719C747 227.927 744.922 226.74 743.141 225.156C741.359 223.474 739.924 221.346 738.836 218.773C737.747 216.201 737.203 213.133 737.203 209.57C737.203 205.315 738.044 200.417 739.727 194.875C741.508 189.333 744.872 183 749.82 175.875C753.878 170.036 757.391 165.187 760.359 161.328C763.328 157.37 765.753 153.956 767.633 151.086C769.612 148.117 771.047 145.445 771.938 143.07C772.828 140.596 773.273 137.875 773.273 134.906C773.273 132.333 772.531 130.354 771.047 128.969C769.563 127.583 767.88 126.891 766 126.891C760.953 126.891 755.758 128.326 750.414 131.195C745.07 134.065 739.776 137.875 734.531 142.625C729.286 147.276 724.141 152.62 719.094 158.656C714.047 164.693 709.247 170.878 704.695 177.211C700.242 183.445 696.086 189.581 692.227 195.617C688.466 201.654 685.201 207.096 682.43 211.945C679.659 216.695 677.531 220.555 676.047 223.523C674.464 226.393 673.622 227.878 673.523 227.977C669.367 236.487 665.31 244.701 661.352 252.617C657.393 260.633 653.682 268.203 650.219 275.328C646.656 282.453 643.391 288.935 640.422 294.773L632.703 310.211C630.526 314.565 628.844 317.979 627.656 320.453C626.37 322.927 625.677 324.214 625.578 324.312L609.398 315.109C617.513 299.771 624.836 285.917 631.367 273.547C637.898 261.177 644.133 249.5 650.07 238.516C656.008 227.63 661.846 217.042 667.586 206.75C667.611 206.705 667.636 206.66 667.661 206.615C662.144 212.292 656.627 217.038 651.109 220.852C644.479 225.503 637.948 228.867 631.516 230.945C625.083 233.023 618.948 234.062 613.109 234.062C608.854 234.062 604.352 233.469 599.602 232.281C594.852 231.094 590.448 229.115 586.391 226.344C582.432 223.573 579.167 219.862 576.594 215.211C573.922 210.56 572.586 204.771 572.586 197.844C572.586 195.632 572.7 193.448 572.929 191.289C571.743 192.882 570.529 194.474 569.281 196.062C563.938 202.891 558.049 209.076 551.617 214.617C545.185 220.06 538.258 224.464 530.836 227.828C523.414 231.292 515.547 233.023 507.234 233.023C499.813 233.023 493.578 231.242 488.531 227.68C483.385 224.216 480.219 218.971 479.031 211.945L484.375 210.906C484.375 211.5 484.672 212.49 485.266 213.875C485.76 215.161 486.602 216.448 487.789 217.734C488.977 219.021 490.609 220.159 492.688 221.148C494.667 222.138 497.141 222.633 500.109 222.633C504.068 222.633 507.581 221.742 510.648 219.961C513.716 218.081 516.388 215.656 518.664 212.687C520.94 209.719 522.87 206.354 524.453 202.594C526.036 198.734 527.273 194.776 528.164 190.719C529.154 186.661 529.846 182.703 530.242 178.844C530.638 174.984 530.836 171.471 530.836 168.305C530.836 165.138 530.688 161.625 530.391 157.766C530.193 153.906 529.945 150.245 529.648 146.781C529.352 143.219 529.055 140.151 528.758 137.578C528.56 134.906 528.461 133.174 528.461 132.383L528.461 132.086C527.174 133.471 525.641 135.5 523.859 138.172C522.078 140.844 520.148 143.763 518.07 146.93C516.091 150.096 514.063 153.312 511.984 156.578C510.005 159.844 508.174 162.812 506.492 165.484C504.909 168.156 503.573 170.383 502.484 172.164C501.495 173.846 501 174.737 501 174.836C500.406 175.826 499.169 177.854 497.289 180.922C495.409 183.99 493.083 187.503 490.313 191.461C487.542 195.419 484.375 199.576 480.813 203.93C477.25 208.284 473.49 212.292 469.531 215.953C465.573 219.516 461.466 222.484 457.211 224.859C452.956 227.135 448.75 228.273 444.594 228.273C442.021 228.273 439.695 227.828 437.617 226.937C435.638 226.047 433.956 224.859 432.57 223.375C431.185 221.891 430.096 220.159 429.305 218.18C428.513 216.201 428.117 214.122 428.117 211.945C428.117 209.372 428.513 206.552 429.305 203.484C430.195 200.417 431.432 197.151 433.016 193.687C428.464 199.031 423.961 203.979 419.508 208.531C415.055 212.984 410.602 216.844 406.148 220.109C401.794 223.276 397.44 225.75 393.086 227.531C388.732 229.411 384.328 230.352 379.875 230.352C376.115 230.352 372.701 229.659 369.633 228.273C366.664 226.987 364.091 225.156 361.914 222.781C359.638 220.307 357.906 217.339 356.719 213.875C355.531 210.312 354.938 206.354 354.938 202C354.938 200.61 355.002 199.213 355.129 197.807C352.712 201.236 350.125 204.515 347.367 207.641C342.914 212.589 338.016 216.695 332.672 219.961C327.328 223.227 321.49 224.859 315.156 224.859C309.219 224.859 304.667 223.078 301.5 219.516C298.333 215.953 296.75 211.352 296.75 205.711C296.75 199.081 298.284 192.154 301.352 184.93C304.419 177.706 308.229 170.581 312.781 163.555C317.432 156.43 322.43 149.602 327.773 143.07C333.216 136.539 338.214 130.602 342.766 125.258L347.516 127.336C346.229 129.909 344.398 133.323 342.023 137.578C339.747 141.734 337.273 146.336 334.602 151.383C331.93 156.331 329.208 161.576 326.438 167.117C323.667 172.56 321.143 177.904 318.867 183.148C316.69 188.294 314.909 193.143 313.523 197.695C312.138 202.247 311.445 206.107 311.445 209.273C311.445 212.143 312.039 214.122 313.227 215.211C314.414 216.201 316.096 216.695 318.273 216.695C322.331 216.695 326.289 215.359 330.148 212.687C334.008 210.016 337.818 206.552 341.578 202.297C345.438 197.943 349.198 192.995 352.859 187.453C356.521 181.911 360.182 176.32 363.844 170.68L364.203 170.959C366.183 167.198 368.388 163.492 370.82 159.844C375.471 153.016 380.568 146.534 386.109 140.398C391.75 134.263 397.094 128.82 402.141 124.07L408.523 128.523C404.961 133.768 400.953 139.706 396.5 146.336C392.146 152.966 387.99 159.844 384.031 166.969C380.172 173.995 376.906 181.07 374.234 188.195C371.563 195.221 370.227 201.753 370.227 207.789C370.227 211.846 370.969 215.31 372.453 218.18C374.036 221.049 377.005 222.484 381.359 222.484C386.109 222.484 391.305 220.604 396.945 216.844C402.685 213.083 408.523 208.185 414.461 202.148C420.497 196.112 426.484 189.333 432.422 181.812C438.458 174.193 444.148 166.523 449.492 158.805C454.836 151.086 459.685 143.714 464.039 136.687C468.492 129.661 472.104 123.674 474.875 118.727L485.711 124.07C479.971 135.352 474.43 145.891 469.086 155.687C463.841 165.385 459.141 174.143 454.984 181.961C450.927 189.68 447.661 196.409 445.188 202.148C442.813 207.888 441.625 212.44 441.625 215.805C441.625 217.19 441.922 218.328 442.516 219.219C443.109 220.109 444.049 220.555 445.336 220.555C448.997 220.654 453.005 219.07 457.359 215.805C461.813 212.539 466.266 208.432 470.719 203.484C475.271 198.536 479.674 193.143 483.93 187.305C488.284 181.367 492.193 175.826 495.656 170.68C495.755 170.581 496.992 168.453 499.367 164.297C501.742 160.141 504.859 154.896 508.719 148.562C512.677 142.13 517.13 135.055 522.078 127.336C527.026 119.518 532.122 111.948 537.367 104.625L543.305 109.523C542.81 110.414 542.167 111.404 541.375 112.492C540.583 113.482 539.792 114.669 539 116.055C538.307 117.341 537.664 118.875 537.07 120.656C536.576 122.437 536.328 124.565 536.328 127.039C536.328 129.117 536.823 131.937 537.813 135.5C538.901 139.062 540.039 143.169 541.227 147.82C542.414 152.372 543.503 157.37 544.492 162.812C545.581 168.156 546.125 173.698 546.125 179.437C546.125 187.849 544.987 195.271 542.711 201.703C540.435 208.135 537.417 213.628 533.656 218.18C541.375 214.023 548.945 208.086 556.367 200.367C563.756 192.584 571.193 182.74 578.681 170.837C580.787 166.023 583.307 161.468 586.242 157.172C590.299 151.234 594.951 145.841 600.195 140.992C605.44 136.044 610.734 131.839 616.078 128.375C621.521 124.911 626.815 122.24 631.961 120.359C637.107 118.38 641.659 117.391 645.617 117.391C648.19 117.391 650.813 117.786 653.484 118.578C656.156 119.37 658.531 120.607 660.609 122.289C662.786 123.971 664.518 126.198 665.805 128.969C667.19 131.74 667.883 135.055 667.883 138.914C667.883 144.159 666.646 149.107 664.172 153.758C661.797 158.31 658.581 162.565 654.523 166.523C650.466 170.383 645.766 173.896 640.422 177.062C635.078 180.13 629.487 182.753 623.648 184.93C617.81 187.107 611.922 188.839 605.984 190.125C600.047 191.411 594.406 192.104 589.063 192.203C588.865 193.391 588.716 194.578 588.617 195.766C588.518 196.953 588.469 198.141 588.469 199.328C588.469 202.891 588.964 206.305 589.953 209.57C591.042 212.737 592.576 215.557 594.555 218.031C596.633 220.406 599.156 222.286 602.125 223.672C605.193 225.057 608.656 225.75 612.516 225.75C625.479 225.75 637.997 221.346 650.07 212.539C662.143 203.732 675.151 191.146 687.125 172.047L687.226 172.123C693.273 161.539 699.787 150.271 706.773 138.32C714.393 125.357 723.052 110.76 732.75 94.5312L737.945 96.6094L704.25 164.297C710.188 156.677 716.422 149.602 722.953 143.07C729.484 136.44 736.164 131.047 742.992 126.891C748.039 123.922 752.492 121.893 756.352 120.805C760.211 119.617 763.872 119.023 767.336 119.023C770.701 119.023 773.471 119.568 775.648 120.656C777.826 121.745 779.557 123.18 780.844 124.961C782.13 126.742 783.021 128.721 783.516 130.898C784.01 132.977 784.258 135.055 784.258 137.133C784.258 141.784 783.466 146.385 781.883 150.937C780.299 155.49 778.32 159.992 775.945 164.445C773.669 168.898 771.146 173.302 768.375 177.656C765.604 181.911 763.031 186.117 760.656 190.273C758.38 194.331 756.451 198.339 754.867 202.297C753.284 206.255 752.492 210.065 752.492 213.727C752.492 215.508 752.69 216.992 753.086 218.18C753.581 219.268 754.174 220.159 754.867 220.852C755.659 221.445 756.5 221.841 757.391 222.039C758.281 222.237 759.172 222.336 760.063 222.336C761.943 222.336 764.12 221.495 766.594 219.812C769.167 218.031 771.888 215.755 774.758 212.984C777.628 210.115 780.547 206.898 783.516 203.336C786.583 199.674 789.503 195.964 792.273 192.203C795.143 188.344 797.815 184.583 800.289 180.922C801.635 178.876 803.067 176.892 804.397 175.016C804.489 174.857 804.58 174.698 804.672 174.539C811.104 163.258 818.081 151.185 825.602 138.32C833.221 125.357 841.88 110.76 851.578 94.5312L856.773 96.6094ZM648.289 124.961C643.935 124.961 639.036 126.544 633.594 129.711C628.151 132.779 622.708 137.083 617.266 142.625C611.823 148.068 606.677 154.5 601.828 161.922C597.078 169.344 593.219 177.31 590.25 185.82C596.88 185.128 603.115 183.742 608.953 181.664C614.792 179.586 620.135 177.062 624.984 174.094C629.833 171.026 634.138 167.711 637.898 164.148C641.758 160.586 644.974 156.974 647.547 153.312C650.12 149.651 652.099 146.138 653.484 142.773C654.87 139.409 655.563 136.391 655.563 133.719C655.563 131.047 654.82 128.919 653.336 127.336C651.951 125.753 650.268 124.961 648.289 124.961ZM995.305 124.961C990.951 124.961 986.052 126.544 980.609 129.711C975.167 132.779 969.724 137.083 964.281 142.625C958.839 148.068 953.693 154.5 948.844 161.922C944.094 169.344 940.234 177.31 937.266 185.82C943.896 185.128 950.13 183.742 955.969 181.664C961.807 179.586 967.151 177.062 972 174.094C976.849 171.026 981.154 167.711 984.914 164.148C988.773 160.586 991.99 156.974 994.563 153.312C997.135 149.651 999.115 146.138 1000.5 142.773C1001.89 139.409 1002.58 136.391 1002.58 133.719C1002.58 131.047 1001.84 128.919 1000.35 127.336C998.966 125.753 997.284 124.961 995.305 124.961ZM260.887 10.9102C251.061 10.9102 241.236 12.8242 231.41 16.6523C221.585 20.4805 212.142 25.8398 203.082 32.7305C194.15 39.6211 185.728 47.7878 177.816 57.2305C169.905 66.6732 162.887 77.0091 156.762 88.2383C150.764 99.3398 145.788 111.143 141.832 123.648C138.004 136.154 135.579 148.85 134.559 161.738C160.462 154.465 182.921 145.533 201.934 134.941C220.947 124.223 236.706 112.993 249.211 101.254C261.716 89.5143 271.031 77.7747 277.156 66.0352C283.281 54.2956 286.344 43.5768 286.344 33.8789C286.344 26.3503 284.174 20.6719 279.836 16.8437C275.625 12.888 269.309 10.9102 260.887 10.9102ZM367.703 86.8125C369.781 86.8125 371.563 87.6042 373.047 89.1875C374.531 90.7708 375.273 92.5026 375.273 94.3828C375.273 96.362 374.779 98.4401 373.789 100.617C372.799 102.695 371.513 104.576 369.93 106.258C368.445 107.94 366.763 109.326 364.883 110.414C363.003 111.503 361.122 112.047 359.242 112.047C357.56 112.047 356.273 111.453 355.383 110.266C354.492 108.979 354.047 107.445 354.047 105.664C354.047 104.081 354.344 102.201 354.938 100.023C355.531 97.8464 356.422 95.8177 357.609 93.9375C358.797 91.9583 360.232 90.276 361.914 88.8906C363.596 87.5052 365.526 86.8125 367.703 86.8125Z" fill="#3CC0E5"/>
</svg>
