                <svg 
                    role="img" 
                    aria-label="Giuseppe Spritz logo"
                    width="1039" 
                    height="367" 
                    viewBox="0 0 1039 367" 
                    fill="none" 
                    xmlns="http://www.w3.org/2000/svg"
                >
                 <title>Giuseppe Spritz Logo</title>
<g clip-path="url(#clip0_66_229)">
<path d="M72.2168 -6.08911C77.8631 -6.08911 82.1514 -4.89044 85.0811 -2.49341C88.064 -0.149649 89.5557 3.366 89.5557 8.05347C89.5556 13.5399 87.9577 19.1065 84.7617 24.7527C81.5657 30.3989 77.0112 35.8324 71.0986 41.0525C65.2393 46.2194 58.1275 50.9864 49.7646 55.3542C41.4551 59.6688 32.1603 63.2382 21.8799 66.0613C21.8799 69.417 22.2791 72.6398 23.0781 75.7292C23.9304 78.7654 25.1827 81.4817 26.834 83.8787C28.4853 86.2224 30.5092 88.0875 32.9063 89.4724C35.3563 90.8572 38.1793 91.5495 41.375 91.5496C45.1037 91.5496 48.9927 90.6707 53.041 88.9128C57.0893 87.155 61.0578 84.9176 64.9463 82.2009C68.8347 79.4844 72.4836 76.4751 75.8926 73.1726C79.3017 69.8168 82.2582 66.5405 84.7617 63.3445C89.4491 57.3255 93.231 52.8245 96.1074 49.8416C98.9836 46.8589 100.529 45.2609 100.742 45.0476L103.618 48.0837C98.7177 52.8244 94.3766 57.8846 90.5947 63.2644C86.866 68.6444 83.4299 74.1045 80.2871 79.6443C77.1444 85.1308 74.1879 90.6177 71.418 96.1042C68.6481 101.591 65.7988 106.837 62.8691 111.844C59.9395 116.852 56.7962 121.485 53.4404 125.747C50.1379 130.061 46.3561 133.791 42.0947 136.933C37.8334 140.076 32.9859 142.526 27.5527 144.284C22.1727 146.095 15.94 147.001 8.85547 147.001C2.25047 147.001 -3.71536 146.201 -9.04199 144.603C-14.3154 143.059 -18.8163 140.875 -22.5449 138.052C-26.2736 135.282 -29.1238 131.979 -31.0947 128.144C-33.1189 124.362 -34.1308 120.234 -34.1309 115.76C-34.1309 111.019 -33.3055 106.944 -31.6543 103.535C-30.0563 100.073 -27.9519 97.2491 -25.3418 95.0652C-22.785 92.828 -19.882 91.2032 -16.6328 90.1912C-13.3302 89.1258 -10.0272 88.5935 -6.72461 88.5935C-2.67651 88.5935 0.78578 89.2322 3.66211 90.5105C6.53848 91.7889 9.01538 93.3074 11.0928 95.0652L8.77637 98.3406C8.13716 97.8079 7.36453 97.222 6.45898 96.5828C5.60675 95.9436 4.59466 95.3576 3.42285 94.825C2.30424 94.239 1.05194 93.7603 -0.333008 93.3875C-1.66465 93.0146 -3.10276 92.8279 -4.64746 92.8279C-7.68362 92.8279 -10.4535 93.3871 -12.957 94.5056C-15.4604 95.6242 -17.6177 97.2223 -19.4287 99.2996C-21.1865 101.324 -22.5451 103.748 -23.5039 106.571C-24.4627 109.341 -24.9424 112.404 -24.9424 115.76C-24.9424 120.181 -23.983 124.069 -22.0654 127.425C-20.2011 130.834 -17.7511 133.657 -14.7148 135.894C-11.6254 138.185 -8.16322 139.916 -4.32812 141.088C-0.439754 142.259 3.50217 142.845 7.49707 142.845C13.5163 142.845 18.737 141.967 23.1582 140.209C27.6326 138.504 31.6012 136.187 35.0635 133.258C38.5789 130.328 41.7214 126.892 44.4912 122.951C47.3144 119.009 50.0583 114.827 52.7217 110.406C55.385 105.932 58.128 101.377 60.9512 96.7429C63.7743 92.0554 66.997 87.4742 70.6191 82.9998C64.8131 87.7938 59.1135 91.4693 53.5205 94.0261C47.9809 96.5296 42.6009 97.7819 37.3809 97.782C34.1316 97.782 30.9884 97.196 27.9521 96.0242C24.9159 94.799 22.1988 92.9876 19.8018 90.5906C17.4582 88.1404 15.5412 85.1041 14.0498 81.4822C12.5583 77.8067 11.7321 73.4917 11.5723 68.5378C8.32305 69.2303 4.99397 69.8163 1.58496 70.2957C-1.82414 70.7751 -5.28709 71.1743 -8.80273 71.4939L-9.12207 67.3396C-5.44663 66.9135 -1.87741 66.4338 1.58496 65.9011C5.04728 65.3685 8.40309 64.7557 11.6523 64.0632C11.9187 57.5115 13.0111 51.2259 14.9287 45.2068C16.8463 39.1877 19.35 33.5943 22.4395 28.4275C25.5289 23.2075 29.0705 18.4929 33.0654 14.2849C37.0605 10.0235 41.2424 6.40166 45.6104 3.4187C50.0314 0.382578 54.5056 -1.96129 59.0332 -3.61255C63.614 -5.26378 68.0088 -6.08905 72.2168 -6.08911ZM329.365 34.239L315.3 62.4949C317.778 59.3141 320.381 56.36 323.107 53.6335C325.834 50.8659 328.622 48.6146 331.473 46.8796C333.579 45.6405 335.438 44.794 337.049 44.3396C338.66 43.8439 340.189 43.5955 341.635 43.5955C343.039 43.5955 344.196 43.8227 345.104 44.2771C346.013 44.7315 346.736 45.3304 347.273 46.074C347.81 46.8175 348.182 47.6438 348.389 48.5525C348.595 49.4199 348.698 50.2876 348.698 51.155C348.698 53.0965 348.368 55.0176 347.707 56.9177C347.046 58.8179 346.22 60.6975 345.229 62.5564C344.278 64.4152 343.225 66.2535 342.068 68.071C340.912 69.8473 339.837 71.6036 338.846 73.3386C337.896 75.0321 337.091 76.705 336.43 78.3572C335.769 80.0095 335.438 81.6002 335.438 83.1287C335.438 83.8722 335.52 84.4923 335.686 84.988C335.892 85.4423 336.141 85.8142 336.43 86.1033C336.76 86.351 337.112 86.5158 337.483 86.5984C337.855 86.6809 338.227 86.7224 338.599 86.7224C339.383 86.7223 340.292 86.3708 341.324 85.6687C342.398 84.9252 343.535 83.9756 344.732 82.8191C345.93 81.6211 347.149 80.2779 348.389 78.7908C349.669 77.2624 350.888 75.7139 352.045 74.1443C353.243 72.5332 354.358 70.9628 355.391 69.4343C356.423 67.8647 357.332 66.4395 358.117 65.1589L358.467 65.4236C359.363 63.3404 360.445 61.3727 361.711 59.5203C363.405 57.0417 365.347 54.7905 367.536 52.7664C369.725 50.701 371.935 48.9455 374.166 47.4998C376.438 46.054 378.648 44.9379 380.796 44.1531C382.944 43.3269 384.845 42.9138 386.497 42.9138C387.571 42.9138 388.666 43.0795 389.781 43.4099C390.896 43.7404 391.888 44.2567 392.755 44.9587C393.664 45.6609 394.387 46.5903 394.924 47.7468C395.502 48.9035 395.791 50.2881 395.791 51.8992C395.791 54.0884 395.275 56.154 394.242 58.0955C393.251 59.9956 391.908 61.7723 390.215 63.4246C388.521 65.0356 386.559 66.5021 384.328 67.824C382.098 69.1045 379.763 70.1984 377.326 71.1072C374.889 72.016 372.431 72.7391 369.952 73.2761C367.474 73.8131 365.119 74.103 362.889 74.1443C362.806 74.6397 362.744 75.1352 362.703 75.6306C362.662 76.1263 362.641 76.6223 362.641 77.1179C362.641 78.605 362.848 80.0302 363.261 81.3933C363.715 82.7152 364.355 83.8928 365.182 84.9255C366.049 85.9169 367.103 86.7017 368.342 87.28C369.622 87.8583 371.068 88.1482 372.679 88.1482C378.09 88.1482 383.316 86.3091 388.355 82.6326C393.395 78.956 398.415 73.1316 403.413 65.1589L405.52 67.0183C402.793 71.5622 400.026 75.4043 397.217 78.5437C394.408 81.6418 391.598 84.1618 388.789 86.1033C386.022 88.0446 383.295 89.4487 380.61 90.3162C377.925 91.1837 375.364 91.6179 372.927 91.6179C371.15 91.6179 369.271 91.3695 367.288 90.8738C365.305 90.3781 363.467 89.5519 361.773 88.3953C360.121 87.2386 358.758 85.6893 357.684 83.7478C356.568 81.8064 356.011 79.3901 356.011 76.4988C356.011 75.6753 356.049 74.8604 356.125 74.0544C355.849 74.4688 355.563 74.8915 355.267 75.321C354.069 77.0147 352.747 78.7296 351.301 80.4646C349.896 82.158 348.409 83.7067 346.84 85.1111C345.27 86.5156 343.658 87.6518 342.006 88.5193C340.395 89.428 338.805 89.8825 337.235 89.8826C336.161 89.8826 335.128 89.7179 334.137 89.3875C333.145 89.057 332.278 88.5611 331.534 87.9001C330.791 87.1979 330.192 86.3091 329.737 85.2351C329.283 84.1611 329.056 82.8803 329.056 81.3933C329.056 79.6171 329.407 77.5726 330.109 75.2595C330.853 72.9462 332.258 70.3022 334.323 67.3279C336.017 64.8907 337.483 62.8666 338.723 61.2556C339.962 59.6033 340.974 58.1782 341.759 56.9802C342.585 55.7409 343.184 54.625 343.556 53.6335C343.927 52.6009 344.113 51.4645 344.113 50.2253C344.113 49.1515 343.803 48.3251 343.184 47.7468C342.564 47.1687 341.862 46.8797 341.077 46.8796C338.97 46.8796 336.801 47.4785 334.57 48.6765C332.34 49.8745 330.13 51.4652 327.94 53.448C325.751 55.3895 323.603 57.6205 321.496 60.1404C319.389 62.6602 317.386 65.2418 315.485 67.8855C313.626 70.4879 311.891 73.0493 310.28 75.5691C308.711 78.0889 307.348 80.3614 306.191 82.3855C305.035 84.3683 304.146 85.9793 303.526 87.2185C302.867 88.4133 302.516 89.0328 302.474 89.0769C300.739 92.6294 299.045 96.0584 297.393 99.363C295.74 102.709 294.191 105.869 292.745 108.844C291.258 111.818 289.895 114.523 288.655 116.961C287.416 119.439 286.342 121.587 285.434 123.405C284.525 125.223 283.822 126.648 283.326 127.68C282.789 128.713 282.501 129.25 282.459 129.292L275.705 125.45C279.092 119.047 282.15 113.264 284.876 108.1C287.602 102.937 290.204 98.0616 292.683 93.4763C294.564 90.0269 296.422 86.6491 298.256 83.3425C297.651 83.955 297.033 84.5455 296.401 85.1111C294.832 86.5155 293.221 87.6518 291.568 88.5193C289.957 89.4281 288.367 89.8825 286.797 89.8826C285.723 89.8826 284.69 89.7179 283.698 89.3875C282.707 89.057 281.839 88.5611 281.096 87.9001C280.352 87.1979 279.753 86.3091 279.299 85.2351C278.845 84.1611 278.617 82.8803 278.617 81.3933C278.617 79.6172 278.969 77.5726 279.671 75.2595C280.414 72.9462 281.819 70.3022 283.885 67.3279C285.578 64.8907 287.045 62.8666 288.284 61.2556C289.523 59.6033 290.535 58.1782 291.32 56.9802C292.146 55.7409 292.745 54.625 293.117 53.6335C293.489 52.6009 293.675 51.4645 293.675 50.2253C293.675 49.1515 293.365 48.3251 292.745 47.7468C292.126 47.1687 291.423 46.8797 290.639 46.8796C288.532 46.8796 286.363 47.4785 284.132 48.6765C281.901 49.8745 279.691 51.4652 277.502 53.448C275.313 55.3895 273.164 57.6206 271.058 60.1404C268.951 62.6601 266.948 65.2419 265.048 67.8855C263.189 70.4879 261.454 73.0493 259.843 75.5691C258.273 78.089 256.91 80.3613 255.753 82.3855C254.596 84.3682 253.708 85.9793 253.088 87.2185C252.428 88.4138 252.078 89.0333 252.035 89.0769C250.3 92.6294 248.606 96.0584 246.954 99.363C245.302 102.709 243.752 105.869 242.307 108.844C240.82 111.818 239.456 114.523 238.217 116.961C236.978 119.439 235.904 121.587 234.995 123.405C234.086 125.223 233.383 126.648 232.888 127.68C232.351 128.713 232.062 129.25 232.021 129.292L225.267 125.45C228.654 119.047 231.711 113.264 234.438 108.1C237.164 102.937 239.767 98.0617 242.245 93.4763C244.724 88.9325 247.161 84.5126 249.557 80.2166C249.567 80.1977 249.577 80.1787 249.588 80.1599C247.285 82.5296 244.982 84.5113 242.679 86.1033C239.911 88.0448 237.184 89.4487 234.499 90.3162C231.814 91.1837 229.253 91.6179 226.815 91.6179C225.039 91.6179 223.16 91.3695 221.177 90.8738C219.194 90.3781 217.356 89.5519 215.662 88.3953C214.01 87.2386 212.646 85.6893 211.572 83.7478C210.457 81.8064 209.899 79.3901 209.899 76.4988C209.899 75.3427 209.973 74.2034 210.123 73.0818C209.472 73.9739 208.8 74.8664 208.103 75.7546C205.872 78.605 203.414 81.1874 200.729 83.5007C198.044 85.7726 195.152 87.6109 192.054 89.0154C188.956 90.4612 185.671 91.1843 182.201 91.1843C179.103 91.1843 176.501 90.4399 174.395 88.9529C172.246 87.5071 170.924 85.3175 170.429 82.3845L172.659 81.9509C172.659 82.1988 172.783 82.6119 173.031 83.1902C173.238 83.7271 173.588 84.2646 174.084 84.8015C174.58 85.3385 175.262 85.8133 176.129 86.2263C176.955 86.6394 177.988 86.8464 179.228 86.8464C180.88 86.8464 182.346 86.4747 183.627 85.7312C184.907 84.9464 186.023 83.9342 186.973 82.6951C187.923 81.4558 188.729 80.051 189.39 78.4812C190.051 76.8702 190.567 75.2178 190.938 73.5242C191.352 71.8305 191.64 70.1782 191.806 68.5671C191.971 66.9561 192.054 65.4896 192.054 64.1677C192.054 62.8459 191.992 61.3793 191.868 59.7683C191.786 58.1572 191.682 56.6282 191.558 55.1824C191.434 53.6954 191.31 52.4145 191.187 51.3406C191.104 50.2258 191.063 49.5032 191.063 49.1726L191.063 49.0486C190.526 49.6269 189.885 50.4734 189.142 51.5886C188.398 52.704 187.592 53.923 186.725 55.2449C185.899 56.5666 185.052 57.9092 184.185 59.2722C183.358 60.6354 182.594 61.8747 181.892 62.99C181.231 64.1053 180.673 65.0355 180.219 65.7791C179.806 66.4811 179.599 66.853 179.599 66.8943C179.351 67.3075 178.834 68.1542 178.05 69.4343C177.265 70.7149 176.294 72.1815 175.138 73.8337C173.981 75.4861 172.659 77.2212 171.172 79.0388C169.685 80.8564 168.115 82.5299 166.463 84.0583C164.811 85.5455 163.096 86.7847 161.319 87.7761C159.543 88.7261 157.788 89.2009 156.053 89.2009C154.979 89.2009 154.008 89.015 153.141 88.6433C152.314 88.2715 151.612 87.7756 151.033 87.156C150.455 86.5364 150 85.8131 149.67 84.9871C149.34 84.161 149.175 83.2931 149.175 82.3845C149.175 81.3107 149.34 80.1335 149.67 78.8533C150.042 77.5727 150.559 76.2093 151.22 74.7634C149.32 76.9941 147.44 79.0595 145.581 80.9597C143.722 82.8186 141.863 84.4295 140.004 85.7927C138.186 87.1146 136.368 88.1478 134.551 88.8914C132.733 89.6761 130.895 90.0681 129.036 90.0681C127.466 90.0681 126.041 89.7792 124.761 89.2009C123.522 88.6639 122.448 87.8993 121.539 86.908C120.589 85.8752 119.866 84.636 119.37 83.1902C118.874 81.7031 118.626 80.0507 118.626 78.2332C118.626 77.6523 118.654 77.068 118.707 76.4802C117.698 77.9125 116.619 79.2822 115.467 80.5876C113.608 82.6531 111.563 84.368 109.332 85.7312C107.101 87.0944 104.664 87.7761 102.021 87.7761C99.542 87.7761 97.6412 87.0327 96.3193 85.5457C94.9975 84.0586 94.337 82.1374 94.3369 79.783C94.3369 77.0152 94.9772 74.1228 96.2578 71.1072C97.5384 68.0918 99.1282 65.1171 101.028 62.1843C102.97 59.2101 105.056 56.3599 107.287 53.6335C109.559 50.9072 111.646 48.4287 113.546 46.198L115.528 47.0652C114.991 48.1392 114.227 49.5653 113.235 51.3416C112.285 53.0764 111.253 54.9977 110.138 57.1042C109.022 59.1696 107.886 61.3585 106.729 63.6716C105.573 65.9436 104.519 68.1746 103.569 70.364C102.661 72.512 101.917 74.5361 101.339 76.4363C100.761 78.3363 100.471 79.9475 100.471 81.2693C100.471 82.4672 100.719 83.2934 101.215 83.7478C101.711 84.1609 102.413 84.3679 103.321 84.3679C105.015 84.3679 106.667 83.8103 108.278 82.6951C109.889 81.5797 111.48 80.1335 113.05 78.3572C114.661 76.5396 116.23 74.4741 117.759 72.1609C119.287 69.8476 120.816 67.5136 122.345 65.1589L122.494 65.2751C123.321 63.7051 124.242 62.1584 125.257 60.6355C127.198 57.7853 129.325 55.0794 131.639 52.5183C133.993 49.9571 136.224 47.6848 138.331 45.7019L140.995 47.5613C139.508 49.7506 137.835 52.2292 135.977 54.9968C134.159 57.7645 132.424 60.6358 130.771 63.6101C129.16 66.543 127.797 69.4963 126.682 72.4705C125.566 75.4034 125.009 78.1303 125.009 80.6501C125.009 82.3437 125.319 83.7892 125.938 84.9871C126.599 86.185 127.839 86.7849 129.656 86.7849C131.639 86.7849 133.808 85.9991 136.162 84.4294C138.558 82.8598 140.995 80.8153 143.474 78.2957C145.993 75.7758 148.493 72.9459 150.972 69.8064C153.492 66.6256 155.867 63.424 158.098 60.2019C160.328 56.9799 162.352 53.9024 164.17 50.9695C166.029 48.0365 167.537 45.5369 168.693 43.4714L173.217 45.7019C170.821 50.4112 168.507 54.8115 166.276 58.9011C164.087 62.949 162.125 66.6047 160.391 69.8679C158.697 73.09 157.334 75.8997 156.301 78.2957C155.309 80.6914 154.814 82.5914 154.813 83.9958C154.813 84.5742 154.938 85.0498 155.186 85.4216C155.433 85.7931 155.826 85.9792 156.362 85.9792C157.891 86.0206 159.564 85.3591 161.382 83.9958C163.241 82.6327 165.099 80.9185 166.958 78.8533C168.858 76.7879 170.696 74.5364 172.473 72.0994C174.29 69.6208 175.922 67.307 177.368 65.1589C177.409 65.1176 177.926 64.2296 178.917 62.4949C179.908 60.7599 181.21 58.5703 182.821 55.9265C184.474 53.2414 186.332 50.2873 188.397 47.0652C190.463 43.8018 192.591 40.6416 194.78 37.5847L197.259 39.6296C197.052 40.0014 196.784 40.4145 196.453 40.8689C196.123 41.282 195.792 41.7779 195.462 42.3562C195.173 42.8932 194.904 43.5336 194.656 44.2771C194.45 45.0206 194.347 45.9086 194.347 46.9412C194.347 47.8086 194.553 48.9864 194.966 50.4734C195.42 51.9605 195.896 53.6754 196.392 55.6169C196.887 57.517 197.342 59.603 197.755 61.8748C198.209 64.1055 198.437 66.4192 198.437 68.8152C198.436 72.3262 197.961 75.4242 197.011 78.1091C196.061 80.794 194.801 83.0869 193.231 84.9871C196.453 83.2521 199.614 80.7735 202.712 77.5515C205.81 74.2881 208.929 70.1572 212.068 65.1589L212.359 65.4158C213.255 63.3355 214.336 61.3704 215.601 59.5203C217.294 57.0418 219.235 54.7904 221.425 52.7664C223.614 50.701 225.824 48.9455 228.055 47.4998C230.327 46.054 232.537 44.9379 234.685 44.1531C236.833 43.3269 238.733 42.9138 240.386 42.9138C241.46 42.9138 242.555 43.0794 243.67 43.4099C244.785 43.7404 245.777 44.2565 246.645 44.9587C247.553 45.6609 248.276 46.5905 248.813 47.7468C249.391 48.9035 249.681 50.2881 249.681 51.8992C249.681 54.0884 249.164 56.154 248.131 58.0955C247.139 59.9956 245.797 61.7723 244.104 63.4246C242.41 65.0355 240.447 66.5021 238.217 67.824C235.986 69.1045 233.652 70.1984 231.215 71.1072C228.778 72.0159 226.32 72.7391 223.842 73.2761C221.363 73.8131 219.008 74.103 216.777 74.1443C216.695 74.6397 216.633 75.1352 216.592 75.6306C216.55 76.1263 216.529 76.6223 216.529 77.1179C216.529 78.605 216.736 80.0302 217.149 81.3933C217.604 82.7152 218.244 83.8928 219.07 84.9255C219.938 85.9169 220.991 86.7017 222.23 87.28C223.511 87.8583 224.957 88.1481 226.567 88.1482C231.979 88.1482 237.205 86.3091 242.245 82.6326C247.285 78.956 252.303 73.1314 257.302 65.1589L257.831 65.6267C260.334 61.2476 263.028 56.589 265.915 51.6511C269.096 46.2396 272.71 40.1465 276.759 33.3718L278.928 34.239L264.861 62.4949C267.34 59.3141 269.943 56.36 272.669 53.6335C275.395 50.8659 278.184 48.6146 281.034 46.8796C283.141 45.6405 284.999 44.794 286.61 44.3396C288.221 43.8439 289.75 43.5955 291.196 43.5955C292.601 43.5955 293.757 43.8228 294.666 44.2771C295.575 44.7315 296.298 45.3305 296.835 46.074C297.372 46.8175 297.744 47.6438 297.95 48.5525C298.157 49.4199 298.26 50.2876 298.26 51.155C298.26 53.0965 297.929 55.0175 297.269 56.9177C296.608 58.8179 295.781 60.6975 294.79 62.5564C293.84 64.4152 292.786 66.2535 291.63 68.071C290.473 69.8473 289.4 71.6036 288.408 73.3386C287.458 75.0322 286.652 76.7049 285.991 78.3572C285.33 80.0095 285 81.6002 285 83.1287C285 83.8722 285.083 84.4923 285.248 84.988C285.455 85.4422 285.702 85.8142 285.991 86.1033C286.322 86.3511 286.673 86.5158 287.045 86.5984C287.417 86.681 287.788 86.7224 288.16 86.7224C288.945 86.7223 289.854 86.3709 290.887 85.6687C291.961 84.9253 293.096 83.9754 294.294 82.8191C295.492 81.6211 296.711 80.2779 297.95 78.7908C299.231 77.2624 300.45 75.7139 301.606 74.1443C302.804 72.5332 303.919 70.9628 304.952 69.4343C305.985 67.8647 306.894 66.4395 307.679 65.1589L308.278 65.6121C310.779 61.2373 313.47 56.5835 316.354 51.6511C319.534 46.2396 323.149 40.1465 327.197 33.3718L329.365 34.239ZM241.501 46.074C239.683 46.074 237.638 46.7355 235.366 48.0574C233.094 49.3379 230.823 51.1349 228.551 53.448C226.279 55.72 224.131 58.4055 222.106 61.5037C220.124 64.6017 218.513 67.9268 217.273 71.4792C220.041 71.1901 222.644 70.6123 225.081 69.7449C227.518 68.8775 229.748 67.8238 231.772 66.5847C233.797 65.3041 235.594 63.9195 237.164 62.4324C238.775 60.9454 240.117 59.4373 241.191 57.9089C242.265 56.3806 243.092 54.9139 243.67 53.5095C244.248 52.1052 244.537 50.8454 244.537 49.7302C244.537 48.6149 244.227 47.7261 243.607 47.0652C243.029 46.4045 242.327 46.074 241.501 46.074ZM387.612 46.074C385.795 46.074 383.75 46.7355 381.478 48.0574C379.206 49.3379 376.934 51.1349 374.662 53.448C372.39 55.72 370.242 58.4055 368.218 61.5037C366.235 64.6018 364.623 67.9267 363.384 71.4792C366.151 71.1901 368.754 70.6123 371.191 69.7449C373.629 68.8774 375.86 67.8239 377.884 66.5847C379.908 65.3041 381.705 63.9195 383.274 62.4324C384.885 60.9452 386.229 59.4374 387.303 57.9089C388.377 56.3806 389.203 54.9139 389.781 53.5095C390.359 52.1052 390.648 50.8454 390.648 49.7302C390.648 48.6149 390.338 47.7261 389.719 47.0652C389.141 46.4045 388.438 46.074 387.612 46.074ZM74.7744 -1.5354C70.6729 -1.5354 66.5712 -0.735875 62.4697 0.86206C58.3681 2.46008 54.4255 4.69754 50.6436 7.57397C46.915 10.4503 43.3991 13.8589 40.0967 17.8005C36.7941 21.7423 33.8644 26.0574 31.3076 30.7449C28.8042 35.3789 26.7274 40.3062 25.0762 45.5261C23.4782 50.7462 22.4652 56.0466 22.0391 61.4265C32.8523 58.3903 42.2282 54.6621 50.165 50.241C58.1018 45.7666 64.6803 41.079 69.9004 36.1785C75.1206 31.2779 79.0086 26.3769 81.5654 21.4763C84.1222 16.5759 85.4003 12.1017 85.4004 8.05347C85.4004 4.91088 84.4954 2.54015 82.6846 0.942139C80.9268 -0.709091 78.2899 -1.53534 74.7744 -1.5354ZM123.955 30.1492C124.823 30.1492 125.567 30.4795 126.187 31.1404C126.806 31.8013 127.115 32.5246 127.115 33.3093C127.115 34.1354 126.909 35.0031 126.496 35.9119C126.083 36.7793 125.546 37.5641 124.885 38.2664C124.265 38.9686 123.563 39.5473 122.778 40.0017C121.994 40.456 121.209 40.6833 120.424 40.6833C119.722 40.6833 119.184 40.4357 118.813 39.9402C118.441 39.4033 118.255 38.7627 118.255 38.0193C118.255 37.3583 118.379 36.5726 118.627 35.6638C118.875 34.7552 119.247 33.9085 119.742 33.1238C120.238 32.2977 120.837 31.5956 121.539 31.0173C122.241 30.4391 123.046 30.1492 123.955 30.1492Z" fill="#FCCC39"/>
</g>
<defs>
<clipPath id="clip0_66_229">
<rect width="402" height="147" fill="white"/>
</clipPath>
</defs>
</svg>
